<?xml version="1.0" encoding="utf-8"?>
<!-- Generator: Adobe Illustrator 22.1.0, SVG Export Plug-In . SVG Version: 6.00 Build 0)  -->
<svg version="1.1" id="Layer_1" xmlns="http://www.w3.org/2000/svg" xmlns:xlink="http://www.w3.org/1999/xlink" x="0px" y="0px"
	 viewBox="0 0 156 166" style="enable-background:new 0 0 156 166;" xml:space="preserve">
<style type="text/css">
	.st0{display:none;}
	.st1{display:inline;}
	.st2{fill:#B4B4B4;}
	.st3{fill:#818181;}
	.st4{fill:#989898;}
	.st5{fill:#CCCCCC;}
	.st6{fill:#EE7954;}
	.st7{display:inline;fill:#FECD58;}
	.st8{fill:#444A54;}
	.st9{display:inline;fill:#F5BB42;}
	.st10{fill:#666E79;}
	.st11{fill:#E8EFED;}
	.st12{fill:#99A4A3;}
	.st13{fill:#FFFFFF;}
	.st14{fill:#B3BCBB;}
	.st15{fill:#B2BAB9;}
	.st16{opacity:0.3;fill:#99A4A3;enable-background:new    ;}
	.st17{fill:#60BB46;}
	.st18{fill:#45A447;}
	.st19{fill:#4EB248;}
</style>
<g id="Layer_2">
</g>
<g class="st0">
	<g class="st1">
		<path class="st2" d="M20,21.2L29.2,41l-9.7,4.4v0C14.5,38.2,14.6,28.4,20,21.2z"/>
		<polygon class="st3" points="32.7,48 36.7,56.5 32.4,58.5 28.4,49.9 32.7,47.9 		"/>
		<polygon class="st3" points="41.1,43.9 45.2,52.5 40.9,54.5 40.8,54.4 36.8,45.9 		"/>
		<polygon class="st4" points="40.8,54.4 40.9,54.5 36.7,56.5 32.7,48 32.7,47.9 36.8,45.9 		"/>
		<path class="st5" d="M36.7,56.5l4.2-2l4.3-2l-4-8.6l-4.3,2l-4.2,2l-4.3,2l4,8.6L36.7,56.5z M56,34.9c0,1.6-0.1,3.3-0.6,4.8
			c-0.3,1.1-1.7,4.6-1.7,4.6l0,0l-7.7,18.9c-1.8,4.5-2.9,9.3-3,14.2l-0.6,0H27.5c-0.9-6.2-3.2-12.1-6.8-17.3l-8-11.6l5.1-2.4
			l1.6-0.7l9.7-4.4l16.3-7.5l-8.8-19.3C47.4,14.9,56,23.9,56,34.9z"/>
		<path class="st4" d="M43,134.2v10.1c0,4.2-3.4,7.5-7.5,7.5c-2.1,0-4-0.8-5.3-2.2c-1.4-1.4-2.2-3.2-2.2-5.3v-10.1h0.4h13.8H43z
			 M38.7,144c0-1.7-1.4-3.1-3.1-3.1c-1.7,0-3.1,1.4-3.1,3.1c0,1.7,1.4,3.1,3.1,3.1C37.3,147.2,38.7,145.8,38.7,144z"/>
		<path class="st4" d="M42.4,77.4l0.6,0c0,0.4,0,0.9,0,1.3v3.7h-0.8H28.4l-0.4,0c0-1.7-0.2-3.4-0.4-5.1H42.4z"/>
		<path class="st6" d="M43,82.5v51.7h-0.8H28.4H28V83.5c0-0.3,0-0.7,0-1l0.4,0h13.8L43,82.5L43,82.5z"/>
	</g>
	<g class="st1">
		<g id="XMLID_24_">
			<g>
				<path class="st5" d="M104.7,24.2c0.3,5.4-2,10.3-5.9,13.4c-5.3,4.3-8.3,10.8-8.3,17.6V123c0,3.7,0.9,7.3,2.6,10.5
					c1.1,2.2,1.7,4.6,1.7,7.2c0,8.9-7.3,16-16.3,15.7l4.6-8.8c1.8-3.4,0.5-7.6-2.9-9.4c-1-0.5-2.1-0.8-3.2-0.8
					c-2.5,0-4.9,1.4-6.2,3.7l-4.6,8.7c-1.7-2.3-2.7-5.1-2.9-8.1c-0.3-5.4,2-10.3,5.9-13.4c5.3-4.3,8.3-10.8,8.3-17.6V43
					c0-3.7-0.9-7.3-2.6-10.5c-1.1-2.1-1.7-4.6-1.7-7.2c0-8.9,7.3-16,16.3-15.7l-4.6,8.8c-1.8,3.4-0.5,7.6,2.9,9.4
					c1,0.5,2.1,0.8,3.2,0.8c2.5,0,4.9-1.4,6.2-3.7l4.6-8.7C103.5,18.4,104.5,21.2,104.7,24.2z M86.7,112.5V53.5
					c0-1.5-1.2-2.7-2.7-2.7c-0.7,0-1.4,0.3-1.9,0.8c-0.5,0.5-0.8,1.1-0.8,1.9v59.1c0,1.5,1.2,2.7,2.7,2.7
					C85.5,115.2,86.7,114,86.7,112.5z"/>
				<path class="st4" d="M86.7,53.5v59.1c0,1.5-1.2,2.7-2.7,2.7c-1.5,0-2.7-1.2-2.7-2.7V53.5c0-0.7,0.3-1.4,0.8-1.9
					c0.5-0.5,1.1-0.8,1.9-0.8C85.5,50.8,86.7,52,86.7,53.5z"/>
			</g>
		</g>
	</g>
	<g class="st1">
		<g id="XMLID_23_">
			<g>
				<polygon class="st6" points="143.3,104.1 143.3,107.3 137.8,109.8 123.2,109.8 117.7,107.3 117.7,104.1 127.9,104.1 
					133.2,104.1 				"/>
				<path class="st6" d="M137.8,114.5v32.3c0,0.5,0,1-0.1,1.4l-0.5-0.1h-13.4l-0.4,0.1c-0.1-0.5-0.1-0.9-0.1-1.4v-32.3h0.5h13.4
					H137.8z"/>
				<polygon class="st4" points="137.8,109.8 137.8,114.5 137.2,114.5 123.7,114.5 123.2,114.5 123.2,109.8 				"/>
				<path class="st4" d="M137.2,148.1l0.5,0.1c-0.3,1.4-1,2.7-2,3.7c-1.3,1.3-3.1,2.1-5.2,2.1c-3.6,0-6.5-2.5-7.2-5.9l0.4-0.1H137.2
					z"/>
				<polygon class="st5" points="133.4,20 136.2,30.3 133.4,35.2 133.2,35.2 133.2,104.1 127.9,104.1 127.9,35.2 127.7,35.2 
					124.9,30.3 127.7,20 				"/>
			</g>
		</g>
	</g>
</g>
<g class="st0">
	<polygon class="st7" points="95,74.9 87,74.9 89.1,55.8 91.5,35 79.1,51.9 56.2,82.9 49.6,91.9 60.7,91.9 68.9,91.9 67.3,111.1 
		65.6,131.5 77.4,114.8 99.5,83.8 105.9,74.9 	"/>
	<g class="st1">
		<path class="st8" d="M78,15.7c-37.1,0-67.1,30-67.3,67c0,0.1,0,0.2,0,0.3c0,1.5,1.3,2.8,2.8,2.8s2.8-1.3,2.8-2.8h0
			c0-8.3,1.6-16.4,4.8-24c3.1-7.3,7.6-13.9,13.2-19.6c5.7-5.7,12.3-10.1,19.6-13.2c7.6-3.2,15.7-4.8,24-4.8c8.3,0,16.4,1.6,24,4.8
			c7.3,3.1,13.9,7.6,19.6,13.2c2.1,2.1,4,4.3,5.8,6.6l5.3-2.2C120.5,26.8,100.6,15.7,78,15.7z"/>
		<path class="st8" d="M142.5,80.2c-1.5,0-2.8,1.3-2.8,2.8c0,8.3-1.6,16.4-4.8,24c-3.1,7.3-7.6,13.9-13.2,19.6
			c-5.7,5.7-12.3,10.1-19.6,13.2c-7.6,3.2-15.7,4.8-24,4.8c-8.3,0-16.4-1.6-24-4.8c-7.3-3.1-13.9-7.6-19.6-13.2
			c-2.1-2.1-4-4.3-5.8-6.7l-5.3,2.2c12.2,17.1,32.2,28.2,54.8,28.2c37.2,0,67.3-30.1,67.3-67.3C145.3,81.5,144,80.2,142.5,80.2z"/>
	</g>
	<polygon class="st9" points="91.5,35 49.6,91.9 68.9,91.9 65.6,131.5 76.4,85.9 60.6,85.7 	"/>
	<g class="st1">
		<path class="st10" d="M133.4,48.3c0.3-0.4,0.5-0.8,0.6-1.3c0-0.1,0-0.3,0-0.4V26.9c0-1.5-1.3-2.8-2.8-2.8c-1.6,0-2.8,1.3-2.8,2.8
			v16.8h-16.8c-1.5,0-2.8,1.3-2.8,2.8c0,1.5,1.3,2.8,2.8,2.8h19.6c0.1,0,0.3,0,0.4,0c0.5-0.1,0.9-0.3,1.3-0.6c0,0,0,0,0.1,0
			c0,0,0.1-0.1,0.1-0.1c0,0,0.1-0.1,0.1-0.1c0,0,0.1-0.1,0.1-0.1C133.3,48.4,133.3,48.4,133.4,48.3
			C133.4,48.3,133.4,48.3,133.4,48.3z"/>
		<path class="st10" d="M44.4,116.6L44.4,116.6L44.4,116.6H24.8c-0.1,0-0.2,0-0.3,0c-1.1,0.1-2,0.9-2.3,1.9c0,0,0,0,0,0
			c0,0.1,0,0.1,0,0.2c0,0,0,0.1,0,0.1c0,0.2-0.1,0.4-0.1,0.6v19.7c0,1.5,1.3,2.8,2.8,2.8s2.8-1.3,2.8-2.8v-16.9h16.8l0,0l0,0
			c1.5,0,2.8-1.3,2.8-2.8S45.9,116.6,44.4,116.6z"/>
	</g>
</g>
<g>
	<path class="st11" d="M19.2,142.6c-1.7,0-1.7-2.2-1.7-3.6V15.5c0-1.4,0-2.2,1.7-2.2h103.2c1.4,0,2.9,0.7,2.9,2.2v123.6
		c0,1.4-1.4,3.6-2.9,3.6H19.2z"/>
	<path class="st12" d="M120.5,18.1v119.8H22.3V18.1H120.5 M122.4,8.5H19.2c-4.3,0-6.5,2.9-6.5,6.9v123.6c0,4.1,2.2,8.4,6.5,8.4
		h103.2c4.1,0,7.7-4.3,7.7-8.4V15.5C130.1,11.4,126.5,8.5,122.4,8.5L122.4,8.5z"/>
	<path class="st13" d="M122.4,13.3H19.2c-1.7,0-1.7,0.7-1.7,2.2v123.6c0,1,0,1.7,0.5,2.2L124.6,13.8
		C123.9,13.3,123.2,13.3,122.4,13.3z"/>
	<path class="st14" d="M127.7,10.2c-1.4-1.2-3.4-1.7-5.3-1.7H19.2c-4.3,0-6.5,2.9-6.5,6.9v123.6c0,2.4,0.5,4.1,1.7,6l7.9-7.9V18.1
		h98.2v0.7L127.7,10.2z"/>
	<g>
		<path class="st11" d="M43.6,44.4h56.5c1.9,0,3.6-1.7,3.6-3.6c0-1.9-1.7-3.6-3.6-3.6H43.6c-1.9,0-3.6,1.7-3.6,3.6
			C40,42.8,41.7,44.4,43.6,44.4z"/>
		<path class="st11" d="M43.6,63.6h32.6c1.9,0,3.6-1.7,3.6-3.6s-1.4-3.6-3.4-3.6H43.6c-1.9,0-3.6,1.7-3.6,3.6S41.7,63.6,43.6,63.6z"
			/>
		<path class="st11" d="M100.2,75.6H43.6c-1.9,0-3.6,2.9-3.6,4.8c0,1.9,1.7,4.8,3.6,4.8h56.5c1.9,0,3.6-2.9,3.6-4.8
			C103.8,78.4,102.3,75.6,100.2,75.6z"/>
		<path class="st11" d="M76.4,97.1H43.6c-1.9,0-3.6,1.7-3.6,3.6c0,1.9,1.7,3.6,3.6,3.6h32.6c1.9,0,3.6-1.7,3.6-3.6
			C80,98.8,78.4,97.1,76.4,97.1z"/>
	</g>
	<g>
		<path class="st15" d="M42.4,42H99c1.9,0,3.6-1.7,3.6-3.6c0-1.9-1.4-3.6-3.6-3.6H42.4c-1.9,0-3.6,1.7-3.6,3.6
			C38.8,40.4,40.5,42,42.4,42z"/>
		<path class="st15" d="M99,75.6H42.4c-1.9,0-3.6,1.7-3.6,3.6c0,1.9,1.7,3.6,3.6,3.6H99c1.9,0,3.6-1.7,3.6-3.6
			C102.6,77.3,101.1,75.6,99,75.6z"/>
	</g>
	<g>
		<path class="st12" d="M75.2,94.7H42.4c-1.9,0-3.6,1.7-3.6,3.6s1.7,3.6,3.6,3.6H75c1.9,0,3.6-1.7,3.6-3.6
			C78.8,96.4,77.2,94.7,75.2,94.7z"/>
		<path class="st12" d="M75.2,54H42.4c-1.9,0-3.6,1.7-3.6,3.6s1.7,3.6,3.6,3.6H75c1.9,0,3.6-1.7,3.6-3.6C78.8,55.7,77.2,54,75.2,54z
			"/>
		<circle class="st16" cx="110.9" cy="125.2" r="32.3"/>
	</g>
	<circle class="st17" cx="106.9" cy="125.2" r="32.3"/>
	<path class="st18" d="M106.9,92.8c18,0,32.3,14.4,32.3,32.3s-14.4,32.3-32.3,32.3"/>
	<path class="st19" d="M84.1,102.4c12.7-12.7,33.1-12.7,45.8,0c12.7,12.7,12.7,33.1,0,45.8"/>
	<path class="st18" d="M122.4,125.9h-1.9v-11.3c0-4.6-3.6-7.9-8.1-7.9h-5.5c-4.6,0-8.4,3.6-8.4,8.1c0,1.2,1,2.2,2.4,2.2
		c1.2,0,2.4-0.7,2.4-2.2c0-2.2,1.7-3.6,3.8-3.6h5.5c2.2,0,3.4,1,3.4,3.1v11.5H97c-1.2,0-2.6-0.2-2.6,1v15.8c0,1.2,1.4,2.4,2.6,2.4
		h25.6c1.2,0,2.9-1.2,2.9-2.4v-15.8C125.3,125.6,123.6,125.9,122.4,125.9z"/>
	<path class="st13" d="M120.3,121.1h-2.2V111c0-4.6-3.4-9.1-8.1-9.1h-5.5c-4.6,0-8.4,4.1-8.4,8.9c0,1.2,1,2.6,2.4,2.6
		s2.4-1.2,2.4-2.6c0-2.2,1.7-4.1,3.8-4.1h5.5c2.2,0,3.4,2.4,3.4,4.3v10.1H94.6c-1.2,0-2.6,1-2.6,2.2v14.4c0,1.2,1,2.6,2.2,2.6h27.1
		c1.2,0,1.9-1,1.9-2.2v-14.9C122.9,122,121.2,121.1,120.3,121.1z"/>
	<circle class="st18" cx="107.3" cy="131.1" r="3.1"/>
</g>
</svg>
