<?xml version="1.0" encoding="utf-8"?>
<!-- Generator: Adobe Illustrator 22.1.0, SVG Export Plug-In . SVG Version: 6.00 Build 0)  -->
<svg version="1.1" id="Layer_1" xmlns="http://www.w3.org/2000/svg" xmlns:xlink="http://www.w3.org/1999/xlink" x="0px" y="0px"
	 viewBox="0 0 24 24" style="enable-background:new 0 0 24 24;" xml:space="preserve">
<style type="text/css">
	.st0{fill:#EA4335;}
	.st1{fill:#34A853;}
	.st2{fill:#4A90E2;}
	.st3{fill:#FBBC05;}
</style>
<path class="st0" d="M5.3,9.8C6.2,6.9,8.9,4.9,12,4.9c1.7,0,3.2,0.6,4.4,1.6L19.9,3c-2.1-1.9-4.9-3-7.9-3C7.3,0,3.2,2.7,1.2,6.7
	L5.3,9.8z"/>
<path class="st1" d="M16,18c-1.1,0.7-2.5,1.1-4,1.1c-3.1,0-5.8-2-6.7-4.8l-4,3.1c2,4,6,6.7,10.8,6.7c2.9,0,5.7-1,7.8-3L16,18z"/>
<path class="st2" d="M19.8,21c2.2-2,3.6-5.1,3.6-9c0-0.7-0.1-1.5-0.3-2.2H12v4.6h6.4C18.1,16,17.3,17.2,16,18L19.8,21z"/>
<path class="st3" d="M5.3,14.3C5,13.6,4.9,12.8,4.9,12c0-0.8,0.1-1.5,0.4-2.2l-4-3.1C0.4,8.3,0,10.1,0,12c0,1.9,0.4,3.7,1.2,5.3
	L5.3,14.3z"/>
</svg>
