<?xml version="1.0" encoding="utf-8"?>
<!-- Generator: Adobe Illustrator 22.1.0, SVG Export Plug-In . SVG Version: 6.00 Build 0)  -->
<svg version="1.1" id="Layer_1" xmlns="http://www.w3.org/2000/svg" xmlns:xlink="http://www.w3.org/1999/xlink" x="0px" y="0px"
	 viewBox="0 0 156 166" style="enable-background:new 0 0 156 166;" xml:space="preserve">
<style type="text/css">
	.st0{fill:#B4B4B4;}
	.st1{fill:#818181;}
	.st2{fill:#989898;}
	.st3{fill:#CCCCCC;}
	.st4{fill:#EE7954;}
</style>
<g id="Layer_2">
</g>
<g>
	<g>
		<path class="st0" d="M20,21.2L29.2,41l-9.7,4.4v0C14.5,38.2,14.6,28.4,20,21.2z"/>
		<polygon class="st1" points="32.7,48 36.7,56.5 32.4,58.5 28.4,49.9 32.7,47.9 		"/>
		<polygon class="st1" points="41.1,43.9 45.2,52.5 40.9,54.5 40.8,54.4 36.8,45.9 		"/>
		<polygon class="st2" points="40.8,54.4 40.9,54.5 36.7,56.5 32.7,48 32.7,47.9 36.8,45.9 		"/>
		<path class="st3" d="M36.7,56.5l4.2-2l4.3-2l-4-8.6l-4.3,2l-4.2,2l-4.3,2l4,8.6L36.7,56.5z M56,34.9c0,1.6-0.1,3.3-0.6,4.8
			c-0.3,1.1-1.7,4.6-1.7,4.6l0,0l-7.7,18.9c-1.8,4.5-2.9,9.3-3,14.2l-0.6,0H27.5c-0.9-6.2-3.2-12.1-6.8-17.3l-8-11.6l5.1-2.4
			l1.6-0.7l9.7-4.4l16.3-7.5l-8.8-19.3C47.4,14.9,56,23.9,56,34.9z"/>
		<path class="st2" d="M43,134.2v10.1c0,4.2-3.4,7.5-7.5,7.5c-2.1,0-4-0.8-5.3-2.2c-1.4-1.4-2.2-3.2-2.2-5.3v-10.1h0.4h13.8H43z
			 M38.7,144c0-1.7-1.4-3.1-3.1-3.1c-1.7,0-3.1,1.4-3.1,3.1c0,1.7,1.4,3.1,3.1,3.1C37.3,147.2,38.7,145.8,38.7,144z"/>
		<path class="st2" d="M42.4,77.4l0.6,0c0,0.4,0,0.9,0,1.3v3.7h-0.8H28.4l-0.4,0c0-1.7-0.2-3.4-0.4-5.1H42.4z"/>
		<path class="st4" d="M43,82.5v51.7h-0.8H28.4H28V83.5c0-0.3,0-0.7,0-1l0.4,0h13.8L43,82.5L43,82.5z"/>
	</g>
	<g>
		<g id="XMLID_24_">
			<g>
				<path class="st3" d="M104.7,24.2c0.3,5.4-2,10.3-5.9,13.4c-5.3,4.3-8.3,10.8-8.3,17.6V123c0,3.7,0.9,7.3,2.6,10.5
					c1.1,2.2,1.7,4.6,1.7,7.2c0,8.9-7.3,16-16.3,15.7l4.6-8.8c1.8-3.4,0.5-7.6-2.9-9.4c-1-0.5-2.1-0.8-3.2-0.8
					c-2.5,0-4.9,1.4-6.2,3.7l-4.6,8.7c-1.7-2.3-2.7-5.1-2.9-8.1c-0.3-5.4,2-10.3,5.9-13.4c5.3-4.3,8.3-10.8,8.3-17.6V43
					c0-3.7-0.9-7.3-2.6-10.5c-1.1-2.1-1.7-4.6-1.7-7.2c0-8.9,7.3-16,16.3-15.7l-4.6,8.8c-1.8,3.4-0.5,7.6,2.9,9.4
					c1,0.5,2.1,0.8,3.2,0.8c2.5,0,4.9-1.4,6.2-3.7l4.6-8.7C103.5,18.4,104.5,21.2,104.7,24.2z M86.7,112.5V53.5
					c0-1.5-1.2-2.7-2.7-2.7c-0.7,0-1.4,0.3-1.9,0.8c-0.5,0.5-0.8,1.1-0.8,1.9v59.1c0,1.5,1.2,2.7,2.7,2.7
					C85.5,115.2,86.7,114,86.7,112.5z"/>
				<path class="st2" d="M86.7,53.5v59.1c0,1.5-1.2,2.7-2.7,2.7c-1.5,0-2.7-1.2-2.7-2.7V53.5c0-0.7,0.3-1.4,0.8-1.9
					c0.5-0.5,1.1-0.8,1.9-0.8C85.5,50.8,86.7,52,86.7,53.5z"/>
			</g>
		</g>
	</g>
	<g>
		<g id="XMLID_23_">
			<g>
				<polygon class="st4" points="143.3,104.1 143.3,107.3 137.8,109.8 123.2,109.8 117.7,107.3 117.7,104.1 127.9,104.1 
					133.2,104.1 				"/>
				<path class="st4" d="M137.8,114.5v32.3c0,0.5,0,1-0.1,1.4l-0.5-0.1h-13.4l-0.4,0.1c-0.1-0.5-0.1-0.9-0.1-1.4v-32.3h0.5h13.4
					H137.8z"/>
				<polygon class="st2" points="137.8,109.8 137.8,114.5 137.2,114.5 123.7,114.5 123.2,114.5 123.2,109.8 				"/>
				<path class="st2" d="M137.2,148.1l0.5,0.1c-0.3,1.4-1,2.7-2,3.7c-1.3,1.3-3.1,2.1-5.2,2.1c-3.6,0-6.5-2.5-7.2-5.9l0.4-0.1H137.2
					z"/>
				<polygon class="st3" points="133.4,20 136.2,30.3 133.4,35.2 133.2,35.2 133.2,104.1 127.9,104.1 127.9,35.2 127.7,35.2 
					124.9,30.3 127.7,20 				"/>
			</g>
		</g>
	</g>
</g>
</svg>
